<?xml version="1.0" encoding="utf-8"?>
<!-- Generator: Adobe Illustrator 16.0.0, SVG Export Plug-In . SVG Version: 6.00 Build 0)  -->
<!DOCTYPE svg PUBLIC "-//W3C//DTD SVG 1.1//EN" "http://www.w3.org/Graphics/SVG/1.1/DTD/svg11.dtd">
<svg version="1.1" id="Layer_1" xmlns="http://www.w3.org/2000/svg" xmlns:xlink="http://www.w3.org/1999/xlink" x="0px" y="0px"
	 width="800px" height="1000px" viewBox="0 0 800 1000" enable-background="new 0 0 800 1000" xml:space="preserve">
<g>
	<path fill="#E6E6C8" d="M60,850c-5.523,0-10-4.478-10-10V40c0-5.523,4.477-10,10-10h600c5.522,0,10,4.477,10,10v800
		c0,5.522-4.478,10-10,10H60z"/>
	<g>
		<path fill="#FAFADC" d="M660,40v800H60V40H660 M660,20H60c-11.046,0-20,8.954-20,20v800c0,11.046,8.954,20,20,20h600
			c11.046,0,20-8.954,20-20V40C680,28.954,671.046,20,660,20L660,20z"/>
	</g>
</g>
<g>
	<g>
		<polygon fill="#EBEBC2" points="660,40 60,40 140,140 740,140 		"/>
	</g>
	<line fill="none" stroke="#000000" stroke-width="3" stroke-miterlimit="10" x1="145.793" y1="71.138" x2="419" y2="71.138"/>
	<line fill="none" stroke="#000000" stroke-width="3" stroke-miterlimit="10" x1="458.62" y1="109.345" x2="642.172" y2="109.345"/>
	<line fill="none" stroke="#000000" stroke-width="3" stroke-miterlimit="10" x1="308.224" y1="90" x2="491.775" y2="90"/>
	<line fill="none" stroke="#000000" stroke-width="3" stroke-miterlimit="10" x1="500.396" y1="59.448" x2="632.172" y2="59.448"/>
</g>
<g>
	<path fill="#E6E6C8" d="M140,950c-5.523,0-10-4.478-10-10V140c0-5.523,4.477-10,10-10h600c5.522,0,10,4.477,10,10v800
		c0,5.522-4.478,10-10,10H140z"/>
	<path fill="#FAFADC" d="M740,140v800H140V140H740 M740,120H140c-11.046,0-20,8.954-20,20v800c0,11.046,8.954,20,20,20h600
		c11.046,0,20-8.954,20-20V140C760,128.954,751.046,120,740,120L740,120z"/>
</g>
<g>
	<path fill="#E6E6C8" d="M140,950c-24.468,0-47.331-11.734-64.377-33.042C59.1,896.304,50,868.973,50,840V40c0-5.523,4.477-10,10-10
		s10,4.477,10,10c0,49.626,31.402,90,70,90c5.523,0,10,4.477,10,10v800C150,945.522,145.523,950,140,950z"/>
	<g>
		<path fill="#FAFADC" d="M60,40c0,55.229,35.817,100,80,100v800c-44.183,0-80-44.771-80-100V40 M60,20c-11.046,0-20,8.954-20,20
			v800c0,31.235,9.878,60.784,27.814,83.205c9.07,11.336,19.734,20.292,31.699,26.617C112.286,956.576,125.908,960,140,960
			c11.046,0,20-8.954,20-20V140c0-11.046-8.954-20-20-20c-15.17,0-29.713-7.736-40.951-21.783C86.765,82.862,80,62.187,80,40
			C80,28.954,71.046,20,60,20L60,20z"/>
	</g>
</g>
<g>
	<defs>
		<rect id="SVGID_1_" x="159" y="140" width="581" height="800"/>
	</defs>
	<clipPath id="SVGID_2_">
		<use xlink:href="#SVGID_1_"  overflow="visible"/>
	</clipPath>
	<path opacity="0.4" clip-path="url(#SVGID_2_)" d="M1086.81,179.938H-286.81v5.162h9.237l-9.237,11.954h9.237l-9.237,11.954h3.803
		v6.521h-3.803l9.237,11.954h-9.237l9.237,11.954h-9.237v5.162H1086.81v-5.162h-9.236l9.236-11.954h-9.236l9.236-11.954h-3.804
		v-6.521h3.804l-9.236-11.954h9.236l-9.236-11.954h9.236V179.938z M-218.89,220.568l-3.26-5.04h-5.977l5.977,7.735l1.157,1.502
		l2.103,2.716l-9.236,11.954l-9.237-11.954h9.237l-9.237-11.954h-13.041l-9.237,11.954h9.237l-9.237,11.954l-9.237-11.954l2.1-2.716
		l1.16-1.502l5.977-7.735h-5.977l-3.26,5.04l-2.717,4.198l-5.977-9.237h7.607v-6.521h-7.607l5.977-9.237l2.717,4.198l3.26,5.04
		h5.977l-5.977-7.735l-1.16-1.502l-2.1-2.716l9.237-11.954l9.237,11.954h-9.237l9.237,11.954h13.041l9.237-11.954h-9.237
		l9.237-11.954l9.236,11.954l-2.103,2.716l-1.157,1.502l-5.977,7.735h5.977l3.26-5.04l2.717-4.198l5.978,9.237h-7.607v6.521h7.607
		l-5.978,9.237L-218.89,220.568z M-191.721,239.436h-18.475l9.237-11.954h-9.237l9.237-11.954h-3.804v-6.521h3.804l-9.237-11.954
		h9.237l-9.237-11.954h18.475l-9.237,11.954h9.237l-9.237,11.954h3.803v6.521h-3.803l9.237,11.954h-9.237L-191.721,239.436z
		 M-133.038,220.568l-3.26-5.04h-5.978l5.978,7.735l1.157,1.502l2.103,2.716l-9.237,11.954l-9.237-11.954h9.237l-9.237-11.954
		h-13.04l-9.237,11.954h9.237l-9.237,11.954l-9.237-11.954l2.1-2.716l1.16-1.502l5.978-7.735h-5.978l-3.26,5.04l-2.717,4.198
		l-5.977-9.237h7.606v-6.521h-7.606l5.977-9.237l2.717,4.198l3.26,5.04h5.978l-5.978-7.735l-1.16-1.502l-2.1-2.716l9.237-11.954
		l9.237,11.954h-9.237l9.237,11.954h13.04l9.237-11.954h-9.237l9.237-11.954l9.237,11.954l-2.103,2.716l-1.157,1.502l-5.978,7.735
		h5.978l3.26-5.04l2.717-4.198l5.977,9.237h-7.607v6.521h7.607l-5.977,9.237L-133.038,220.568z M-105.87,239.436h-18.474
		l9.237-11.954h-9.237l9.237-11.954h-3.803v-6.521h3.803l-9.237-11.954h9.237l-9.237-11.954h18.474l-9.237,11.954h9.237
		l-9.237,11.954h3.804v6.521h-3.804l9.237,11.954h-9.237L-105.87,239.436z M-47.188,220.568l-3.26-5.04h-5.977l5.977,7.735
		l1.157,1.502l2.103,2.716l-9.236,11.954l-9.237-11.954h9.237l-9.237-11.954h-13.041l-9.237,11.954h9.237l-9.237,11.954
		l-9.236-11.954l2.1-2.716l1.16-1.502l5.977-7.735h-5.977l-3.26,5.04l-2.717,4.198l-5.978-9.237h7.607v-6.521h-7.607l5.978-9.237
		l2.717,4.198l3.26,5.04h5.977l-5.977-7.735l-1.16-1.502l-2.1-2.716l9.236-11.954l9.237,11.954h-9.237l9.237,11.954h13.041
		l9.237-11.954h-9.237l9.237-11.954l9.236,11.954l-2.103,2.716l-1.157,1.502l-5.977,7.735h5.977l3.26-5.04l2.718-4.198l5.977,9.237
		H-46.1v6.521h7.606l-5.977,9.237L-47.188,220.568z M-20.02,239.436h-18.474l9.237-11.954h-9.237l9.237-11.954h-3.804v-6.521h3.804
		l-9.237-11.954h9.237l-9.237-11.954h18.474l-9.236,11.954h9.236l-9.236,11.954h3.804v6.521h-3.804l9.236,11.954h-9.236
		L-20.02,239.436z M38.664,220.568l-3.26-5.04h-5.977l5.977,7.735l1.157,1.502l2.103,2.716l-9.236,11.954l-9.237-11.954h9.237
		l-9.237-11.954H7.149l-9.237,11.954h9.237l-9.237,11.954l-9.236-11.954l2.1-2.716l1.16-1.502l5.977-7.735h-5.977l-3.26,5.04
		l-2.718,4.198l-5.978-9.237h7.608v-6.521h-7.608l5.978-9.237l2.718,4.198l3.26,5.04h5.977l-5.977-7.735l-1.16-1.502l-2.1-2.716
		l9.236-11.954l9.237,11.954h-9.237l9.237,11.954H20.19l9.237-11.954H20.19l9.237-11.954l9.236,11.954l-2.103,2.716l-1.157,1.502
		l-5.977,7.735h5.977l3.26-5.04l2.717-4.198l5.978,9.237h-7.606v6.521h7.606l-5.978,9.237L38.664,220.568z M65.833,239.436H47.358
		l9.237-11.954h-9.237l9.237-11.954h-3.804v-6.521h3.804l-9.237-11.954h9.237L47.358,185.1h18.475l-9.237,11.954h9.237
		l-9.237,11.954h3.803v6.521h-3.803l9.237,11.954h-9.237L65.833,239.436z M124.516,220.568l-3.26-5.04h-5.978l5.978,7.735
		l1.156,1.502l2.104,2.716l-9.237,11.954l-9.237-11.954h9.237l-9.237-11.954h-13.04l-9.237,11.954h9.237l-9.237,11.954
		l-9.237-11.954l2.1-2.716l1.16-1.502l5.978-7.735h-5.978l-3.26,5.04l-2.717,4.198l-5.977-9.237h7.606v-6.521h-7.606l5.977-9.237
		l2.717,4.198l3.26,5.04h5.978l-5.978-7.735l-1.16-1.502l-2.1-2.716l9.237-11.954l9.237,11.954h-9.237l9.237,11.954h13.04
		l9.237-11.954h-9.237l9.237-11.954l9.237,11.954l-2.104,2.716l-1.156,1.502l-5.978,7.735h5.978l3.26-5.04l2.717-4.198l5.977,9.237
		h-7.606v6.521h7.606l-5.977,9.237L124.516,220.568z M151.684,239.436h-18.475l9.237-11.954h-9.237l9.237-11.954h-3.804v-6.521
		h3.804l-9.237-11.954h9.237l-9.237-11.954h18.475l-9.237,11.954h9.237l-9.237,11.954h3.804v6.521h-3.804l9.237,11.954h-9.237
		L151.684,239.436z M210.366,220.568l-3.26-5.04h-5.977l5.977,7.735l1.157,1.502l2.103,2.716l-9.236,11.954l-9.237-11.954h9.237
		l-9.237-11.954h-13.041l-9.237,11.954h9.237l-9.237,11.954l-9.237-11.954l2.101-2.716l1.16-1.502l5.977-7.735h-5.977l-3.261,5.04
		l-2.716,4.198l-5.978-9.237h7.606v-6.521h-7.606l5.978-9.237l2.716,4.198l3.261,5.04h5.977l-5.977-7.735l-1.16-1.502l-2.101-2.716
		l9.237-11.954l9.237,11.954h-9.237l9.237,11.954h13.041l9.237-11.954h-9.237l9.237-11.954l9.236,11.954l-2.103,2.716l-1.157,1.502
		l-5.977,7.735h5.977l3.26-5.04l2.718-4.198l5.977,9.237h-7.607v6.521h7.607l-5.977,9.237L210.366,220.568z M237.534,239.436
		h-18.474l9.237-11.954h-9.237l9.237-11.954h-3.804v-6.521h3.804l-9.237-11.954h9.237l-9.237-11.954h18.474l-9.236,11.954h9.236
		l-9.236,11.954h3.804v6.521h-3.804l9.236,11.954h-9.236L237.534,239.436z M296.218,220.568l-3.26-5.04h-5.977l5.977,7.735
		l1.157,1.502l2.103,2.716l-9.236,11.954l-9.237-11.954h9.237l-9.237-11.954h-13.042l-9.236,11.954h9.236l-9.236,11.954
		l-9.237-11.954l2.101-2.716l1.16-1.502l5.977-7.735h-5.977l-3.261,5.04l-2.717,4.198l-5.978-9.237h7.607v-6.521h-7.607l5.978-9.237
		l2.717,4.198l3.261,5.04h5.977l-5.977-7.735l-1.16-1.502l-2.101-2.716l9.237-11.954l9.236,11.954h-9.236l9.236,11.954h13.042
		l9.237-11.954h-9.237l9.237-11.954l9.236,11.954l-2.103,2.716l-1.157,1.502l-5.977,7.735h5.977l3.26-5.04l2.717-4.198l5.978,9.237
		h-7.607v6.521h7.607l-5.978,9.237L296.218,220.568z M323.386,239.436h-18.474l9.237-11.954h-9.237l9.237-11.954h-3.804v-6.521
		h3.804l-9.237-11.954h9.237l-9.237-11.954h18.474l-9.236,11.954h9.236l-9.236,11.954h3.803v6.521h-3.803l9.236,11.954h-9.236
		L323.386,239.436z M382.069,220.568l-3.26-5.04h-5.978l5.978,7.735l1.156,1.502l2.104,2.716l-9.237,11.954l-9.237-11.954h9.237
		l-9.237-11.954h-13.04l-9.237,11.954h9.237l-9.237,11.954l-9.237-11.954l2.1-2.716l1.16-1.502l5.978-7.735h-5.978l-3.26,5.04
		l-2.718,4.198l-5.977-9.237h7.607v-6.521h-7.607l5.977-9.237l2.718,4.198l3.26,5.04h5.978l-5.978-7.735l-1.16-1.502l-2.1-2.716
		l9.237-11.954l9.237,11.954h-9.237l9.237,11.954h13.04l9.237-11.954h-9.237l9.237-11.954l9.237,11.954l-2.104,2.716l-1.156,1.502
		l-5.978,7.735h5.978l3.26-5.04l2.717-4.198l5.977,9.237h-7.606v6.521h7.606l-5.977,9.237L382.069,220.568z M409.237,239.436
		h-18.475L400,227.482h-9.237L400,215.528h-3.804v-6.521H400l-9.237-11.954H400l-9.237-11.954h18.475L400,197.054h9.237L400,209.008
		h3.804v6.521H400l9.237,11.954H400L409.237,239.436z M467.92,220.568l-3.26-5.04h-5.978l5.978,7.735l1.157,1.502l2.103,2.716
		l-9.237,11.954l-9.236-11.954h9.236l-9.236-11.954h-13.041l-9.237,11.954h9.237l-9.237,11.954l-9.237-11.954l2.1-2.716l1.161-1.502
		l5.977-7.735h-5.977l-3.261,5.04l-2.716,4.198l-5.978-9.237h7.606v-6.521h-7.606l5.978-9.237l2.716,4.198l3.261,5.04h5.977
		l-5.977-7.735l-1.161-1.502l-2.1-2.716l9.237-11.954l9.237,11.954h-9.237l9.237,11.954h13.041l9.236-11.954h-9.236l9.236-11.954
		l9.237,11.954l-2.103,2.716l-1.157,1.502l-5.978,7.735h5.978l3.26-5.04l2.718-4.198l5.977,9.237h-7.607v6.521h7.607l-5.977,9.237
		L467.92,220.568z M495.088,239.436h-18.474l9.236-11.954h-9.236l9.236-11.954h-3.803v-6.521h3.803l-9.236-11.954h9.236
		l-9.236-11.954h18.474l-9.237,11.954h9.237l-9.237,11.954h3.804v6.521h-3.804l9.237,11.954h-9.237L495.088,239.436z
		 M553.771,220.568l-3.261-5.04h-5.976l5.976,7.735l1.158,1.502l2.103,2.716l-9.236,11.954l-9.237-11.954h9.237l-9.237-11.954
		h-13.042l-9.236,11.954h9.236l-9.236,11.954l-9.237-11.954l2.101-2.716l1.16-1.502l5.977-7.735h-5.977l-3.261,5.04l-2.717,4.198
		l-5.978-9.237h7.607v-6.521h-7.607l5.978-9.237l2.717,4.198l3.261,5.04h5.977l-5.977-7.735l-1.16-1.502l-2.101-2.716l9.237-11.954
		l9.236,11.954h-9.236l9.236,11.954h13.042l9.237-11.954h-9.237l9.237-11.954l9.236,11.954l-2.103,2.716l-1.158,1.502l-5.976,7.735
		h5.976l3.261-5.04l2.717-4.198l5.978,9.237h-7.607v6.521h7.607l-5.978,9.237L553.771,220.568z M580.939,239.436h-18.474
		l9.237-11.954h-9.237l9.237-11.954h-3.805v-6.521h3.805l-9.237-11.954h9.237l-9.237-11.954h18.474l-9.236,11.954h9.236
		l-9.236,11.954h3.803v6.521h-3.803l9.236,11.954h-9.236L580.939,239.436z M639.623,220.568l-3.26-5.04h-5.978l5.978,7.735
		l1.156,1.502l2.104,2.716l-9.237,11.954l-9.237-11.954h9.237l-9.237-11.954h-13.041l-9.236,11.954h9.236l-9.236,11.954
		l-9.237-11.954l2.1-2.716l1.16-1.502l5.978-7.735h-5.978l-3.26,5.04l-2.718,4.198l-5.977-9.237h7.607v-6.521h-7.607l5.977-9.237
		l2.718,4.198l3.26,5.04h5.978l-5.978-7.735l-1.16-1.502l-2.1-2.716l9.237-11.954l9.236,11.954h-9.236l9.236,11.954h13.041
		l9.237-11.954h-9.237l9.237-11.954l9.237,11.954l-2.104,2.716l-1.156,1.502l-5.978,7.735h5.978l3.26-5.04l2.717-4.198l5.977,9.237
		h-7.606v6.521h7.606l-5.977,9.237L639.623,220.568z M666.791,239.436h-18.475l9.237-11.954h-9.237l9.237-11.954h-3.804v-6.521
		h3.804l-9.237-11.954h9.237l-9.237-11.954h18.475l-9.237,11.954h9.237l-9.237,11.954h3.804v6.521h-3.804l9.237,11.954h-9.237
		L666.791,239.436z M725.474,220.568l-3.26-5.04h-5.978l5.978,7.735l1.157,1.502l2.103,2.716l-9.237,11.954L707,227.482h9.236
		L707,215.528h-13.041l-9.237,11.954h9.237l-9.237,11.954l-9.237-11.954l2.1-2.716l1.16-1.502l5.978-7.735h-5.978l-3.26,5.04
		l-2.717,4.198l-5.977-9.237h7.606v-6.521h-7.606l5.977-9.237l2.717,4.198l3.26,5.04h5.978l-5.978-7.735l-1.16-1.502l-2.1-2.716
		l9.237-11.954l9.237,11.954h-9.237l9.237,11.954H707l9.236-11.954H707l9.236-11.954l9.237,11.954l-2.103,2.716l-1.157,1.502
		l-5.978,7.735h5.978l3.26-5.04l2.718-4.198l5.977,9.237h-7.607v6.521h7.607l-5.977,9.237L725.474,220.568z M752.642,239.436
		h-18.474l9.236-11.954h-9.236l9.236-11.954h-3.803v-6.521h3.803l-9.236-11.954h9.236l-9.236-11.954h18.474l-9.237,11.954h9.237
		l-9.237,11.954h3.805v6.521h-3.805l9.237,11.954h-9.237L752.642,239.436z M811.325,220.568l-3.261-5.04h-5.977l5.977,7.735
		l1.158,1.502l2.103,2.716l-9.237,11.954l-9.236-11.954h9.236l-9.236-11.954H779.81l-9.237,11.954h9.237l-9.237,11.954
		l-9.236-11.954l2.1-2.716l1.161-1.502l5.976-7.735h-5.976l-3.261,5.04l-2.717,4.198l-5.978-9.237h7.607v-6.521h-7.607l5.978-9.237
		l2.717,4.198l3.261,5.04h5.976l-5.976-7.735l-1.161-1.502l-2.1-2.716l9.236-11.954l9.237,11.954h-9.237l9.237,11.954h13.042
		l9.236-11.954h-9.236l9.236-11.954l9.237,11.954l-2.103,2.716l-1.158,1.502l-5.977,7.735h5.977l3.261-5.04l2.717-4.198l5.978,9.237
		h-7.607v6.521h7.607l-5.978,9.237L811.325,220.568z M838.493,239.436H820.02l9.236-11.954h-9.236l9.236-11.954h-3.803v-6.521h3.803
		l-9.236-11.954h9.236L820.02,185.1h18.474l-9.237,11.954h9.237l-9.237,11.954h3.804v6.521h-3.804l9.237,11.954h-9.237
		L838.493,239.436z M897.177,220.568l-3.261-5.04h-5.977l5.977,7.735l1.157,1.502l2.104,2.716l-9.237,11.954l-9.237-11.954h9.237
		l-9.237-11.954h-13.041l-9.236,11.954h9.236l-9.236,11.954l-9.237-11.954l2.1-2.716l1.16-1.502l5.978-7.735h-5.978l-3.26,5.04
		l-2.718,4.198l-5.977-9.237h7.607v-6.521h-7.607l5.977-9.237l2.718,4.198l3.26,5.04h5.978l-5.978-7.735l-1.16-1.502l-2.1-2.716
		l9.237-11.954l9.236,11.954h-9.236l9.236,11.954h13.041l9.237-11.954h-9.237l9.237-11.954l9.237,11.954l-2.104,2.716l-1.157,1.502
		l-5.977,7.735h5.977l3.261-5.04l2.716-4.198l5.978,9.237h-7.606v6.521h7.606l-5.978,9.237L897.177,220.568z M924.345,239.436
		H905.87l9.237-11.954h-9.237l9.237-11.954h-3.804v-6.521h3.804l-9.237-11.954h9.237L905.87,185.1h18.475l-9.237,11.954h9.237
		l-9.237,11.954h3.804v6.521h-3.804l9.237,11.954h-9.237L924.345,239.436z M983.027,220.568l-3.26-5.04h-5.978l5.978,7.735
		l1.157,1.502l2.103,2.716l-9.237,11.954l-9.237-11.954h9.237l-9.237-11.954h-13.04l-9.237,11.954h9.237l-9.237,11.954
		l-9.237-11.954l2.1-2.716l1.16-1.502l5.978-7.735h-5.978l-3.26,5.04l-2.717,4.198l-5.977-9.237h7.606v-6.521h-7.606l5.977-9.237
		l2.717,4.198l3.26,5.04h5.978l-5.978-7.735l-1.16-1.502l-2.1-2.716l9.237-11.954l9.237,11.954h-9.237l9.237,11.954h13.04
		l9.237-11.954h-9.237l9.237-11.954l9.237,11.954l-2.103,2.716l-1.157,1.502l-5.978,7.735h5.978l3.26-5.04l2.718-4.198l5.977,9.237
		h-7.607v6.521h7.607l-5.977,9.237L983.027,220.568z M1010.195,239.436h-18.474l9.236-11.954h-9.236l9.236-11.954h-3.804v-6.521
		h3.804l-9.236-11.954h9.236l-9.236-11.954h18.474l-9.237,11.954h9.237l-9.237,11.954h3.804v6.521h-3.804l9.237,11.954h-9.237
		L1010.195,239.436z M1077.573,215.528l-5.978,9.237l-2.718-4.198l-3.26-5.04h-5.977l5.977,7.735l1.158,1.502l2.102,2.716
		l-9.236,11.954l-9.237-11.954h9.237l-9.237-11.954h-13.041l-9.237,11.954h9.237l-9.237,11.954l-9.236-11.954l2.1-2.716l1.16-1.502
		l5.977-7.735h-5.977l-3.26,5.04l-2.717,4.198l-5.978-9.237h7.607v-6.521h-7.607l5.978-9.237l2.717,4.198l3.26,5.04h5.977
		l-5.977-7.735l-1.16-1.502l-2.1-2.716l9.236-11.954l9.237,11.954h-9.237l9.237,11.954h13.041l9.237-11.954h-9.237l9.237-11.954
		l9.236,11.954l-2.102,2.716l-1.158,1.502l-5.977,7.735h5.977l3.26-5.04l2.718-4.198l5.978,9.237h-7.607v6.521H1077.573z"/>
	<path opacity="0.4" clip-path="url(#SVGID_2_)" d="M-286.81,900.063H1086.81V894.9h-9.237l9.237-11.955h-9.237l9.237-11.953h-3.803
		v-6.521h3.803l-9.237-11.954h9.237l-9.237-11.953h9.237v-5.162H-286.81v5.162h9.236l-9.236,11.953h9.236l-9.236,11.954h3.804v6.521
		h-3.804l9.236,11.953h-9.236l9.236,11.955h-9.236V900.063z M1018.89,859.432l3.26,5.04h5.977l-5.977-7.735l-1.157-1.502
		l-2.103-2.717l9.236-11.953l9.237,11.953h-9.237l9.237,11.954h13.041l9.237-11.954h-9.237l9.237-11.953l9.236,11.953l-2.1,2.717
		l-1.16,1.502l-5.977,7.735h5.977l3.26-5.04l2.718-4.197l5.977,9.237h-7.607v6.521h7.607l-5.977,9.237l-2.718-4.198l-3.26-5.039
		h-5.977l5.977,7.734l1.16,1.503l2.1,2.716l-9.236,11.955l-9.237-11.955h9.237l-9.237-11.953h-13.041l-9.237,11.953h9.237
		l-9.237,11.955l-9.236-11.955l2.103-2.716l1.157-1.503l5.977-7.734h-5.977l-3.26,5.039l-2.717,4.198l-5.978-9.237h7.606v-6.521
		h-7.606l5.978-9.237L1018.89,859.432z M991.721,840.564h18.475l-9.237,11.953h9.237l-9.237,11.954h3.805v6.521h-3.805l9.237,11.953
		h-9.237l9.237,11.955h-18.475l9.237-11.955h-9.237l9.237-11.953h-3.803v-6.521h3.803l-9.237-11.954h9.237L991.721,840.564z
		 M933.038,859.432l3.26,5.04h5.978l-5.978-7.735l-1.157-1.502l-2.103-2.717l9.237-11.953l9.237,11.953h-9.237l9.237,11.954h13.04
		l9.237-11.954h-9.237l9.237-11.953l9.237,11.953l-2.1,2.717l-1.16,1.502l-5.978,7.735h5.978l3.26-5.04l2.717-4.197l5.977,9.237
		h-7.606v6.521h7.606l-5.977,9.237l-2.717-4.198l-3.26-5.039h-5.978l5.978,7.734l1.16,1.503l2.1,2.716L973.79,894.9l-9.237-11.955
		h9.237l-9.237-11.953h-13.04l-9.237,11.953h9.237l-9.237,11.955l-9.237-11.955l2.103-2.716l1.157-1.503l5.978-7.734h-5.978
		l-3.26,5.039l-2.717,4.198l-5.977-9.237h7.606v-6.521h-7.606l5.977-9.237L933.038,859.432z M905.87,840.564h18.475l-9.237,11.953
		h9.237l-9.237,11.954h3.804v6.521h-3.804l9.237,11.953h-9.237l9.237,11.955H905.87l9.237-11.955h-9.237l9.237-11.953h-3.804v-6.521
		h3.804l-9.237-11.954h9.237L905.87,840.564z M847.188,859.432l3.26,5.04h5.977l-5.977-7.735l-1.157-1.502l-2.103-2.717
		l9.236-11.953l9.237,11.953h-9.237l9.237,11.954h13.041l9.237-11.954h-9.237l9.237-11.953l9.236,11.953l-2.1,2.717l-1.16,1.502
		l-5.977,7.735h5.977l3.26-5.04l2.717-4.197l5.978,9.237h-7.607v6.521h7.607l-5.978,9.237l-2.717-4.198l-3.26-5.039h-5.977
		l5.977,7.734l1.16,1.503l2.1,2.716l-9.236,11.955l-9.237-11.955h9.237l-9.237-11.953h-13.041l-9.237,11.953h9.237l-9.237,11.955
		l-9.236-11.955l2.103-2.716l1.157-1.503l5.977-7.734h-5.977l-3.26,5.039l-2.718,4.198l-5.977-9.237h7.606v-6.521h-7.606
		l5.977-9.237L847.188,859.432z M820.02,840.564h18.474l-9.237,11.953h9.237l-9.237,11.954h3.804v6.521h-3.804l9.237,11.953h-9.237
		l9.237,11.955H820.02l9.236-11.955h-9.236l9.236-11.953h-3.804v-6.521h3.804l-9.236-11.954h9.236L820.02,840.564z M761.336,859.432
		l3.26,5.04h5.977l-5.977-7.735l-1.157-1.502l-2.103-2.717l9.236-11.953l9.237,11.953h-9.237l9.237,11.954h13.041l9.237-11.954
		h-9.237l9.237-11.953l9.236,11.953l-2.1,2.717l-1.16,1.502l-5.977,7.735h5.977l3.26-5.04l2.718-4.197l5.978,9.237h-7.608v6.521
		h7.608l-5.978,9.237l-2.718-4.198l-3.26-5.039h-5.977l5.977,7.734l1.16,1.503l2.1,2.716l-9.236,11.955l-9.237-11.955h9.237
		l-9.237-11.953H779.81l-9.237,11.953h9.237l-9.237,11.955l-9.236-11.955l2.103-2.716l1.157-1.503l5.977-7.734h-5.977l-3.26,5.039
		l-2.717,4.198l-5.978-9.237h7.606v-6.521h-7.606l5.978-9.237L761.336,859.432z M734.167,840.564h18.475l-9.237,11.953h9.237
		l-9.237,11.954h3.804v6.521h-3.804l9.237,11.953h-9.237l9.237,11.955h-18.475l9.237-11.955h-9.237l9.237-11.953h-3.803v-6.521
		h3.803l-9.237-11.954h9.237L734.167,840.564z M675.484,859.432l3.26,5.04h5.978l-5.978-7.735l-1.156-1.502l-2.104-2.717
		l9.237-11.953l9.237,11.953h-9.237l9.237,11.954h13.04l9.237-11.954h-9.237l9.237-11.953l9.237,11.953l-2.1,2.717l-1.16,1.502
		l-5.978,7.735h5.978l3.26-5.04l2.717-4.197l5.977,9.237h-7.606v6.521h7.606l-5.977,9.237l-2.717-4.198l-3.26-5.039h-5.978
		l5.978,7.734l1.16,1.503l2.1,2.716l-9.237,11.955l-9.237-11.955h9.237l-9.237-11.953h-13.04l-9.237,11.953h9.237l-9.237,11.955
		l-9.237-11.955l2.104-2.716l1.156-1.503l5.978-7.734h-5.978l-3.26,5.039l-2.717,4.198l-5.977-9.237h7.606v-6.521h-7.606
		l5.977-9.237L675.484,859.432z M648.316,840.564h18.475l-9.237,11.953h9.237l-9.237,11.954h3.804v6.521h-3.804l9.237,11.953h-9.237
		l9.237,11.955h-18.475l9.237-11.955h-9.237l9.237-11.953h-3.804v-6.521h3.804l-9.237-11.954h9.237L648.316,840.564z
		 M589.634,859.432l3.26,5.04h5.977l-5.977-7.735l-1.157-1.502l-2.103-2.717l9.236-11.953l9.237,11.953h-9.237l9.237,11.954h13.041
		l9.237-11.954h-9.237l9.237-11.953l9.237,11.953l-2.101,2.717l-1.16,1.502l-5.977,7.735h5.977l3.261-5.04l2.716-4.197l5.978,9.237
		h-7.606v6.521h7.606l-5.978,9.237l-2.716-4.198l-3.261-5.039h-5.977l5.977,7.734l1.16,1.503l2.101,2.716l-9.237,11.955
		l-9.237-11.955h9.237l-9.237-11.953h-13.041l-9.237,11.953h9.237L598.87,894.9l-9.236-11.955l2.103-2.716l1.157-1.503l5.977-7.734
		h-5.977l-3.26,5.039l-2.718,4.198l-5.977-9.237h7.607v-6.521h-7.607l5.977-9.237L589.634,859.432z M562.466,840.564h18.474
		l-9.237,11.953h9.237l-9.237,11.954h3.804v6.521h-3.804l9.237,11.953h-9.237l9.237,11.955h-18.474l9.236-11.955h-9.236
		l9.236-11.953h-3.804v-6.521h3.804l-9.236-11.954h9.236L562.466,840.564z M503.782,859.432l3.26,5.04h5.977l-5.977-7.735
		l-1.157-1.502l-2.103-2.717l9.236-11.953l9.237,11.953h-9.237l9.237,11.954h13.042l9.236-11.954h-9.236l9.236-11.953l9.237,11.953
		l-2.101,2.717l-1.16,1.502l-5.977,7.735h5.977l3.261-5.04l2.717-4.197l5.978,9.237h-7.607v6.521h7.607l-5.978,9.237l-2.717-4.198
		l-3.261-5.039h-5.977l5.977,7.734l1.16,1.503l2.101,2.716l-9.237,11.955l-9.236-11.955h9.236l-9.236-11.953h-13.042l-9.237,11.953
		h9.237l-9.237,11.955l-9.236-11.955l2.103-2.716l1.157-1.503l5.977-7.734h-5.977l-3.26,5.039l-2.717,4.198l-5.978-9.237h7.607
		v-6.521h-7.607l5.978-9.237L503.782,859.432z M476.614,840.564h18.474l-9.237,11.953h9.237l-9.237,11.954h3.804v6.521h-3.804
		l9.237,11.953h-9.237l9.237,11.955h-18.474l9.236-11.955h-9.236l9.236-11.953h-3.803v-6.521h3.803l-9.236-11.954h9.236
		L476.614,840.564z M417.931,859.432l3.26,5.04h5.978l-5.978-7.735l-1.156-1.502l-2.104-2.717l9.237-11.953l9.237,11.953h-9.237
		l9.237,11.954h13.04l9.237-11.954h-9.237l9.237-11.953l9.237,11.953l-2.1,2.717l-1.16,1.502l-5.978,7.735h5.978l3.26-5.04
		l2.718-4.197l5.977,9.237h-7.607v6.521h7.607l-5.977,9.237l-2.718-4.198l-3.26-5.039h-5.978l5.978,7.734l1.16,1.503l2.1,2.716
		l-9.237,11.955l-9.237-11.955h9.237l-9.237-11.953h-13.04l-9.237,11.953h9.237l-9.237,11.955l-9.237-11.955l2.104-2.716
		l1.156-1.503l5.978-7.734h-5.978l-3.26,5.039l-2.717,4.198l-5.977-9.237h7.606v-6.521h-7.606l5.977-9.237L417.931,859.432z
		 M390.763,840.564h18.475L400,852.518h9.237L400,864.472h3.804v6.521H400l9.237,11.953H400l9.237,11.955h-18.475L400,882.945
		h-9.237L400,870.992h-3.804v-6.521H400l-9.237-11.954H400L390.763,840.564z M332.08,859.432l3.26,5.04h5.978l-5.978-7.735
		l-1.157-1.502l-2.103-2.717l9.237-11.953l9.236,11.953h-9.236l9.236,11.954h13.041l9.237-11.954h-9.237l9.237-11.953l9.237,11.953
		l-2.1,2.717l-1.161,1.502l-5.977,7.735h5.977l3.261-5.04l2.716-4.197l5.978,9.237h-7.606v6.521h7.606l-5.978,9.237l-2.716-4.198
		l-3.261-5.039h-5.977l5.977,7.734l1.161,1.503l2.1,2.716l-9.237,11.955l-9.237-11.955h9.237l-9.237-11.953h-13.041l-9.236,11.953
		h9.236l-9.236,11.955l-9.237-11.955l2.103-2.716l1.157-1.503l5.978-7.734h-5.978l-3.26,5.039l-2.718,4.198l-5.977-9.237h7.607
		v-6.521h-7.607l5.977-9.237L332.08,859.432z M304.912,840.564h18.474l-9.236,11.953h9.236l-9.236,11.954h3.803v6.521h-3.803
		l9.236,11.953h-9.236l9.236,11.955h-18.474l9.237-11.955h-9.237l9.237-11.953h-3.804v-6.521h3.804l-9.237-11.954h9.237
		L304.912,840.564z M246.229,859.432l3.261,5.04h5.976l-5.976-7.735l-1.158-1.502l-2.103-2.717l9.236-11.953l9.237,11.953h-9.237
		l9.237,11.954h13.042l9.236-11.954h-9.236l9.236-11.953l9.237,11.953l-2.101,2.717l-1.16,1.502l-5.977,7.735h5.977l3.261-5.04
		l2.717-4.197l5.978,9.237h-7.607v6.521h7.607l-5.978,9.237l-2.717-4.198l-3.261-5.039h-5.977l5.977,7.734l1.16,1.503l2.101,2.716
		L286.98,894.9l-9.236-11.955h9.236l-9.236-11.953h-13.042l-9.237,11.953h9.237l-9.237,11.955l-9.236-11.955l2.103-2.716
		l1.158-1.503l5.976-7.734h-5.976l-3.261,5.039l-2.717,4.198l-5.978-9.237h7.607v-6.521h-7.607l5.978-9.237L246.229,859.432z
		 M219.061,840.564h18.474l-9.237,11.953h9.237l-9.237,11.954h3.805v6.521h-3.805l9.237,11.953h-9.237l9.237,11.955h-18.474
		l9.236-11.955h-9.236l9.236-11.953h-3.803v-6.521h3.803l-9.236-11.954h9.236L219.061,840.564z M160.377,859.432l3.26,5.04h5.978
		l-5.978-7.735l-1.156-1.502l-2.104-2.717l9.237-11.953l9.237,11.953h-9.237l9.237,11.954h13.041l9.236-11.954h-9.236l9.236-11.953
		l9.237,11.953l-2.1,2.717l-1.16,1.502l-5.978,7.735h5.978l3.26-5.04l2.718-4.197l5.977,9.237h-7.607v6.521h7.607l-5.977,9.237
		l-2.718-4.198l-3.26-5.039h-5.978l5.978,7.734l1.16,1.503l2.1,2.716l-9.237,11.955l-9.236-11.955h9.236l-9.236-11.953h-13.041
		l-9.237,11.953h9.237l-9.237,11.955l-9.237-11.955l2.104-2.716l1.156-1.503l5.978-7.734h-5.978l-3.26,5.039l-2.717,4.198
		l-5.977-9.237h7.606v-6.521h-7.606l5.977-9.237L160.377,859.432z M133.209,840.564h18.475l-9.237,11.953h9.237l-9.237,11.954h3.804
		v6.521h-3.804l9.237,11.953h-9.237l9.237,11.955h-18.475l9.237-11.955h-9.237l9.237-11.953h-3.804v-6.521h3.804l-9.237-11.954
		h9.237L133.209,840.564z M74.526,859.432l3.26,5.04h5.978l-5.978-7.735l-1.157-1.502l-2.103-2.717l9.237-11.953L93,852.518h-9.236
		L93,864.472h13.041l9.237-11.954h-9.237l9.237-11.953l9.237,11.953l-2.1,2.717l-1.16,1.502l-5.978,7.735h5.978l3.26-5.04
		l2.717-4.197l5.977,9.237h-7.606v6.521h7.606l-5.977,9.237l-2.717-4.198l-3.26-5.039h-5.978l5.978,7.734l1.16,1.503l2.1,2.716
		l-9.237,11.955l-9.237-11.955h9.237l-9.237-11.953H93l-9.236,11.953H93L83.764,894.9l-9.237-11.955l2.103-2.716l1.157-1.503
		l5.978-7.734h-5.978l-3.26,5.039l-2.718,4.198l-5.977-9.237h7.607v-6.521h-7.607l5.977-9.237L74.526,859.432z M47.358,840.564
		h18.474l-9.236,11.953h9.236l-9.236,11.954h3.803v6.521h-3.803l9.236,11.953h-9.236l9.236,11.955H47.358l9.237-11.955h-9.237
		l9.237-11.953h-3.805v-6.521h3.805l-9.237-11.954h9.237L47.358,840.564z M-11.325,859.432l3.261,5.04h5.977l-5.977-7.735
		l-1.158-1.502l-2.103-2.717l9.237-11.953l9.236,11.953h-9.236l9.236,11.954H20.19l9.237-11.954H20.19l9.237-11.953l9.236,11.953
		l-2.1,2.717l-1.161,1.502l-5.976,7.735h5.976l3.261-5.04l2.717-4.197l5.978,9.237h-7.607v6.521h7.607l-5.978,9.237l-2.717-4.198
		l-3.261-5.039h-5.976l5.976,7.734l1.161,1.503l2.1,2.716L29.428,894.9l-9.237-11.955h9.237l-9.237-11.953H7.148l-9.236,11.953
		h9.236L-2.088,894.9l-9.237-11.955l2.103-2.716l1.158-1.503l5.977-7.734h-5.977l-3.261,5.039l-2.717,4.198l-5.978-9.237h7.607
		v-6.521h-7.607l5.978-9.237L-11.325,859.432z M-38.493,840.564h18.474l-9.236,11.953h9.236l-9.236,11.954h3.803v6.521h-3.803
		l9.236,11.953h-9.236l9.236,11.955h-18.474l9.237-11.955h-9.237l9.237-11.953h-3.804v-6.521h3.804l-9.237-11.954h9.237
		L-38.493,840.564z M-97.177,859.432l3.261,5.04h5.977l-5.977-7.735l-1.157-1.502l-2.104-2.717l9.237-11.953l9.237,11.953h-9.237
		l9.237,11.954h13.041l9.236-11.954h-9.236l9.236-11.953l9.237,11.953l-2.1,2.717l-1.16,1.502l-5.978,7.735h5.978l3.26-5.04
		l2.718-4.197l5.977,9.237h-7.607v6.521h7.607l-5.977,9.237l-2.718-4.198l-3.26-5.039h-5.978l5.978,7.734l1.16,1.503l2.1,2.716
		l-9.237,11.955l-9.236-11.955h9.236l-9.236-11.953h-13.041l-9.237,11.953h9.237l-9.237,11.955l-9.237-11.955l2.104-2.716
		l1.157-1.503l5.977-7.734h-5.977l-3.261,5.039l-2.716,4.198l-5.978-9.237h7.606v-6.521h-7.606l5.978-9.237L-97.177,859.432z
		 M-124.345,840.564h18.475l-9.237,11.953h9.237l-9.237,11.954h3.804v6.521h-3.804l9.237,11.953h-9.237l9.237,11.955h-18.475
		l9.237-11.955h-9.237l9.237-11.953h-3.804v-6.521h3.804l-9.237-11.954h9.237L-124.345,840.564z M-183.027,859.432l3.26,5.04h5.978
		l-5.978-7.735l-1.157-1.502l-2.103-2.717l9.237-11.953l9.237,11.953h-9.237l9.237,11.954h13.04l9.237-11.954h-9.237l9.237-11.953
		l9.237,11.953l-2.1,2.717l-1.16,1.502l-5.978,7.735h5.978l3.26-5.04l2.717-4.197l5.977,9.237h-7.606v6.521h7.606l-5.977,9.237
		l-2.717-4.198l-3.26-5.039h-5.978l5.978,7.734l1.16,1.503l2.1,2.716l-9.237,11.955l-9.237-11.955h9.237l-9.237-11.953h-13.04
		l-9.237,11.953h9.237l-9.237,11.955l-9.237-11.955l2.103-2.716l1.157-1.503l5.978-7.734h-5.978l-3.26,5.039l-2.718,4.198
		l-5.977-9.237h7.607v-6.521h-7.607l5.977-9.237L-183.027,859.432z M-210.195,840.564h18.474l-9.236,11.953h9.236l-9.236,11.954
		h3.804v6.521h-3.804l9.236,11.953h-9.236l9.236,11.955h-18.474l9.237-11.955h-9.237l9.237-11.953h-3.804v-6.521h3.804
		l-9.237-11.954h9.237L-210.195,840.564z M-277.573,864.472l5.978-9.237l2.718,4.197l3.26,5.04h5.977l-5.977-7.735l-1.158-1.502
		l-2.102-2.717l9.236-11.953l9.237,11.953h-9.237l9.237,11.954h13.041l9.237-11.954h-9.237l9.237-11.953l9.236,11.953l-2.1,2.717
		l-1.16,1.502l-5.977,7.735h5.977l3.26-5.04l2.717-4.197l5.978,9.237h-7.607v6.521h7.607l-5.978,9.237l-2.717-4.198l-3.26-5.039
		h-5.977l5.977,7.734l1.16,1.503l2.1,2.716l-9.236,11.955l-9.237-11.955h9.237l-9.237-11.953h-13.041l-9.237,11.953h9.237
		l-9.237,11.955l-9.236-11.955l2.102-2.716l1.158-1.503l5.977-7.734h-5.977l-3.26,5.039l-2.718,4.198l-5.978-9.237h7.607v-6.521
		H-277.573z"/>
</g>
<polygon opacity="0.3" points="539,140 589,189 589,281 667,317 715,353 740,337 740,140 "/>
<polygon opacity="0.3" points="360,940 337,875 291,857 259.5,717 203,741 159,743 159,940 "/>
<g opacity="0.4">
	<g>
		<path d="M124.603,895.862l-51.685-39.076l0.001-6.515l13.717-9.056l5.072,7.377l-11.401,7.261l44.327,33.494L124.603,895.862z"/>
		<path d="M124.768,861.261l-51.843-39.076l0.001-6.515l51.873,39.076L124.768,861.261z"/>
		<path d="M125.328,835.893l-2.132,3.118L74.53,802.397l-2.327-6.313c2.138-3.798,4.53-6.694,7.18-8.688
			c2.651-1.993,5.571-2.891,8.757-2.699c3.189,0.195,6.705,1.733,10.546,4.615c3.258,2.444,6.501,5.919,9.727,10.419
			c3.227,4.503,6.288,9.826,9.188,15.972C120.498,821.851,123.074,828.58,125.328,835.893z M117.985,828.556
			c-0.961-2.853-2.105-5.854-3.433-9.006c-1.326-3.149-2.813-6.238-4.458-9.266c-1.645-3.025-3.414-5.781-5.306-8.266
			c-1.893-2.484-3.882-4.512-5.973-6.081c-3.401-2.554-6.746-3.577-10.031-3.073c-3.284,0.505-6.335,2.789-9.157,6.85
			L117.985,828.556z"/>
		<path d="M125.135,784.604l-19.08-14.284l-11.663,10.698l-5.103-7.378l9.603-8.684l-11.55-8.647L75.71,767.008l-5.109-7.378
			l13.385-12.353l41.18,30.813L125.135,784.604z"/>
		<path d="M125.236,763.613l-52.291-39.076l0.001-6.516l13.877-9.055l5.131,7.377l-11.534,7.26l44.846,33.494L125.236,763.613z"/>
		<path d="M125.467,715.403l-19.196-14.284l-11.734,10.698l-5.134-7.378l9.661-8.684l-11.621-8.647l-11.702,10.698l-5.14-7.378
			l13.467-12.354l41.43,30.813L125.467,715.403z"/>
		<path d="M95.792,675.775c-2.726-2.026-4.638-5.259-4.633-7.792c0.004-2.534,1.924-2.776,4.652-0.822
			c2.58,1.915,4.565,5.059,4.559,7.736C100.364,677.432,98.37,677.69,95.792,675.775z M121.794,695.095
			c-2.726-2.025-4.633-5.258-4.623-7.791c0.01-2.534,1.934-2.776,4.661-0.823c2.58,1.915,4.562,5.059,4.549,7.736
			C126.369,696.751,124.372,697.01,121.794,695.095z"/>
		<path d="M126.293,681.875l-5.252-0.484c-3.71-9.143-7.394-16.712-11.049-22.713c-3.656-5.999-7.308-10.349-10.952-13.049
			c-3.644-2.7-7.303-3.745-10.977-3.133c-3.67,0.611-7.402,2.674-11.194,6.186l-5.162-7.306c4.134-3.933,8.408-6.268,12.818-7.009
			c4.415-0.738,9.259,0.843,14.53,4.746c5.025,3.721,9.798,9.265,14.315,16.625C117.888,663.103,122.194,671.813,126.293,681.875z"
			/>
		<path d="M125.855,634.332l-16.938,2.578l-15.207-26.33l-12.888-9.522l11.454,22.236l-4.739-0.317l-16.639-32.51l16.699-7.883
			l4.744,6.688l-11.512,5.271l12.895,9.522l15.316-3.783l16.846,27.535L125.855,634.332z M120.24,626.916l-11.079-18.345
			l-10.554,2.363l10.487,17.905L120.24,626.916z"/>
		<path d="M126.127,577.51l-31.038-22.822l11.698,28.554l-3.355,1.446c-2.225-2.559-4.527-4.955-6.902-7.189
			c-2.377-2.232-4.902-4.336-7.577-6.306c-5.447-4.013-10.773-6.344-15.975-6.989l0.001-6.877c2.379,0.497,4.82,1.281,7.322,2.351
			c2.504,1.071,5.268,2.719,8.289,4.943c1.29,0.95,2.763,2.107,4.423,3.475s3.232,2.863,4.717,4.488l-9.489-22.93l-15.259-11.22
			l0.001-6.516l53.173,39.076L126.127,577.51z"/>
		<path d="M126.228,556.518l-4.847-3.558c-2.088-1.532-4-3.057-5.741-4.576c-1.738-1.518-3.427-3.265-5.065-5.241
			c-1.638-1.976-3.338-4.36-5.099-7.151c-1.761-2.79-3.708-6.226-5.84-10.304c-2.145,0.941-4.103,1.512-5.871,1.712
			c-1.768,0.201-3.473,0.086-5.116-0.348c-1.641-0.431-3.332-1.164-5.072-2.201c-1.74-1.034-3.654-2.319-5.742-3.852l-4.847-3.558
			l0.001-6.515l3.507,2.572c2.239,1.642,4.191,2.955,5.857,3.935c1.667,0.981,3.297,1.598,4.889,1.848
			c1.594,0.252,3.362,0.122,5.306-0.386c1.945-0.506,4.316-1.404,7.112-2.691c2.781,5.374,5.136,9.738,7.072,13.09
			c1.935,3.354,3.696,6.074,5.284,8.157c1.59,2.085,3.216,3.858,4.881,5.322c1.666,1.464,3.617,3.016,5.855,4.657l3.506,2.572
			L126.228,556.518z"/>
		<path d="M126.432,513.883c-2.648-1.064-5.136-1.686-7.461-1.862c-2.326-0.177-4.251,0.422-5.783,1.794
			c-1.529,1.374-2.399,3.868-2.612,7.485l-6.127-4.488c0.159-3.123,0.679-5.523,1.558-7.201c0.88-1.678,1.933-2.866,3.159-3.565
			c1.228-0.697,2.517-1.037,3.867-1.018l-40.036-29.28l0.001-6.516l40.058,29.28c-1.344-1.998-2.625-4.227-3.844-6.689
			c-1.217-2.462-2.26-5.171-3.127-8.126c-0.867-2.954-1.373-6.104-1.513-9.447l6.15,4.488c0.188,3.863,1.039,7.605,2.553,11.227
			c1.516,3.624,3.429,7.041,5.745,10.258c2.314,3.217,4.794,6.226,7.435,9.029L126.432,513.883z"/>
		<path d="M96.259,463.324c-2.777-2.025-4.724-5.258-4.719-7.791c0.004-2.534,1.959-2.776,4.738-0.823
			c2.627,1.916,4.65,5.059,4.643,7.737C100.915,464.98,98.884,465.24,96.259,463.324z M122.742,482.644
			c-2.776-2.025-4.719-5.257-4.709-7.791c0.01-2.534,1.969-2.776,4.747-0.824c2.628,1.916,4.646,5.059,4.633,7.737
			C127.401,484.3,125.367,484.559,122.742,482.644z"/>
		<path d="M126.721,453.368l-14.287,9.057l-5.246-7.378l11.86-7.261l-46.039-33.494l0.001-6.515l53.742,39.077L126.721,453.368z"/>
		<path d="M126.813,434.187l-30.14-21.892l0.044-19.761l-23.701-17.185l0.001-6.515l23.713,17.185l0.03-13.247l-23.74-17.185
			l0.001-6.515l30.107,21.782l-0.055,19.762l23.864,17.294l-0.031,6.515l-23.851-17.294l-0.037,13.246l23.824,17.294
			L126.813,434.187z"/>
		<path d="M127.094,375.481l-54.069-39.077l0.001-6.515l14.348-9.055l5.305,7.377l-11.925,7.26l46.371,33.494L127.094,375.481z"/>
		<path d="M127.368,318.296l-23.665,9.962l-6.757-4.871l-23.91-44.167l0.001-6.515l54.361,39.077L127.368,318.296z M118.845,312.166
			l-37.515-26.981l18.82,34.493L118.845,312.166z"/>
		<path d="M96.664,278.667c-2.82-2.025-4.798-5.257-4.794-7.79c0.005-2.535,1.99-2.776,4.813-0.823
			c2.669,1.916,4.724,5.058,4.717,7.737C101.393,280.324,99.331,280.583,96.664,278.667z M123.565,297.987
			c-2.82-2.025-4.794-5.256-4.784-7.79c0.01-2.535,2-2.776,4.822-0.824c2.669,1.916,4.72,5.058,4.707,7.737
			C128.298,299.644,126.232,299.902,123.565,297.987z"/>
		<path d="M127.597,270.45l-38.124-27.31l-7.722,0.625l7.625,12.785l-4.584,1.277l-12.509-20.848l11.312-1.311l-11.309-17.51
			l12.557-2.896l4.586,7.844l-7.66,1.837l7.715,11.68l38.145,27.31L127.597,270.45z"/>
		<path d="M127.754,237.587L73.053,198.51l0.001-6.516l14.516-9.055l5.367,7.377l-12.064,7.26l46.912,33.494L127.754,237.587z"/>
		<path d="M127.898,207.474l-17.619-26.703l-17.788,1.473l-19.429-28.614l0.001-6.803l19.495-1.21l17.749,26.757l17.767-1.527
			l-0.038,7.89l-13.511,0.845l13.412,20.002L127.898,207.474z M105.986,173.507l-13.596-20.544l-14.25,0.878l14.211,20.839
			L105.986,173.507z"/>
	</g>
</g>
</svg>
