<?xml version="1.0" encoding="utf-8"?>
<!-- Generator: Adobe Illustrator 16.0.0, SVG Export Plug-In . SVG Version: 6.00 Build 0)  -->
<!DOCTYPE svg PUBLIC "-//W3C//DTD SVG 1.1//EN" "http://www.w3.org/Graphics/SVG/1.1/DTD/svg11.dtd">
<svg version="1.1" id="Layer_1" xmlns="http://www.w3.org/2000/svg" xmlns:xlink="http://www.w3.org/1999/xlink" x="0px" y="0px"
	 width="1024px" height="1024px" viewBox="0 0 1024 1024" enable-background="new 0 0 1024 1024" xml:space="preserve">
<g>
	<polygon fill="#C0C0C0" points="930.544,509.396 852.075,694.256 852.075,825.073 820.698,966.329 721.288,1018.643 
		302.711,1018.643 203.302,966.329 171.924,825.073 171.924,694.256 93.453,509.396 135.298,369.898 130.079,298.315 
		203.302,256.47 287.023,222.454 347.924,146.592 460.2,75.979 512,102.865 563.797,75.979 676.075,146.592 736.977,222.454 
		820.698,256.47 893.919,298.315 888.701,369.898 	"/>
	<polygon fill="#777777" points="852.075,825.079 820.698,966.334 721.288,1018.65 302.742,1018.65 203.332,966.334 
		171.924,825.079 271.335,694.294 349.806,521.632 423.059,411.752 512,369.906 600.941,411.752 674.193,521.632 752.665,694.294 	
		"/>
	<polygon fill="#777777" points="852.075,694.276 757.902,512.841 804.985,324.495 888.699,369.906 930.553,509.387 	"/>
	<polygon fill="#CCCCCC" points="820.684,256.479 852.075,146.609 893.928,298.335 	"/>
	<polygon fill="#777777" points="710.813,418.668 736.974,324.495 710.813,222.473 548.626,120.451 539.522,298.335 
		621.872,324.495 	"/>
	<polygon fill="#CCCCCC" points="563.797,75.979 676.075,146.609 619.936,5.35 	"/>
	<polygon fill="#777777" points="171.926,694.276 266.099,512.841 219.013,324.495 135.301,369.906 93.447,509.387 	"/>
	<polygon fill="#CCCCCC" points="203.316,256.479 171.926,146.609 130.071,298.335 	"/>
	<polygon fill="#777777" points="313.187,418.668 287.025,324.495 313.187,222.473 475.374,120.451 484.478,298.335 
		402.129,324.495 	"/>
	<polygon fill="#CCCCCC" points="460.202,75.979 347.926,146.609 404.063,5.35 	"/>
</g>
</svg>
