<?xml version="1.0" encoding="utf-8"?>
<!-- Generator: Adobe Illustrator 16.0.0, SVG Export Plug-In . SVG Version: 6.00 Build 0)  -->
<!DOCTYPE svg PUBLIC "-//W3C//DTD SVG 1.1//EN" "http://www.w3.org/Graphics/SVG/1.1/DTD/svg11.dtd">
<svg version="1.1" id="Layer_1" xmlns="http://www.w3.org/2000/svg" xmlns:xlink="http://www.w3.org/1999/xlink" x="0px" y="0px"
	 width="800px" height="1000px" viewBox="0 0 800 1000" enable-background="new 0 0 800 1000" xml:space="preserve">
<polygon fill="#E1E1C2" points="700,900 658.414,900 651.518,878.138 636,900 223.931,900 236,876.414 213.586,869.518 186,900 
	100,900 100,676.414 132.552,641.931 100,652.276 100,343.655 122.207,328.138 100,328.138 100,100 425.655,100 423.931,122.965 
	435.941,106.968 460.138,100 700,100 700,372.965 684.276,367.793 700,393.655 700,681.586 675.655,652.276 684.482,698.552 
	700,719.518 "/>
<polygon opacity="0.1" points="100,328.138 122.207,328.138 100,343.655 100,398.828 170.483,348.828 213.586,283.311 206.689,204 
	156.793,143.655 184.276,100 100,100 "/>
<polygon opacity="0.2" points="475.655,900 539.448,829.862 579.104,755.725 648.069,717.793 684.482,698.552 700,719.518 700,900 
	658.414,900 651.518,878.138 636,900 "/>
<polygon opacity="0.1" points="100,741.931 204.965,789.932 319.724,772.966 430.827,852.276 539.448,829.862 475.655,900 
	223.931,900 236,876.414 213.586,869.518 186,900 100,900 "/>
</svg>
